<mxfile host="app.diagrams.net" modified="2023-12-26T21:25:55.855Z" agent="Mozilla/5.0 (Windows NT 10.0; Win64; x64) AppleWebKit/537.36 (KHTML, like Gecko) Chrome/120.0.0.0 Safari/537.36" version="22.1.11" etag="4hr_GuOCSaL3-4XUbeyJ" type="github">
  <diagram name="Page-1" id="q4Kz-8apVyCAl0isEi_x">
    <mxGraphModel>
      <root>
        <mxCell id="0" />
        <mxCell id="1" parent="0" />
      </root>
    </mxGraphModel>
  </diagram>
</mxfile>
